<?xml version="1.0" encoding="UTF-8"?>
<svg id="Calque_2" data-name="Calque 2" xmlns="http://www.w3.org/2000/svg" viewBox="0 0 92.25 23.04">
  <defs>
    <style>
      .cls-1 {
        fill: #e00;
      }
    </style>
  </defs>
  <g id="Calque_1-2" data-name="Calque 1">
    <g id="_5bVsqv.tif" data-name="5bVsqv.tif">
      <g>
        <path class="cls-1" d="M75.91,0c-.1,.11-.19,.23-.29,.34-2.66,2.65-5.32,5.3-7.97,7.96-.23,.23-.47,.32-.79,.32-10.8,0-21.61-.01-32.41,.04-1.66,0-3.33,.2-4.97,.48-2.07,.35-3.72,1.56-5.2,2.98-3.68,3.52-7.35,7.05-11.01,10.59-.23,.22-.45,.33-.78,.33-4-.01-8,0-12.01,0h-.47c.08-.11,.11-.18,.17-.24C5.6,17.43,11,12.04,16.46,6.71c1.25-1.22,2.64-2.33,4.04-3.38,2.4-1.78,5.18-2.64,8.12-2.96,1.45-.16,2.91-.21,4.36-.31,.16-.01,.33-.04,.49-.07,14.14,0,28.29,0,42.43,0Z"/>
        <path class="cls-1" d="M92.25,0c-.1,.13-.19,.26-.31,.37-7.46,7.44-14.92,14.87-22.37,22.31-.26,.26-.51,.35-.87,.35-4.24-.01-8.49,0-12.73,0-.16,0-.33,0-.61,0,.19-.2,.32-.34,.45-.46,7.39-7.37,14.79-14.75,22.18-22.12,.15-.15,.29-.3,.44-.45,4.6,0,9.21,0,13.81,0Z"/>
        <path class="cls-1" d="M65.84,10.05c-.18,.2-.28,.31-.38,.41-2.41,2.41-4.83,4.81-7.24,7.23-.26,.26-.52,.38-.9,.38-7.31,0-14.62,.02-21.93,0-2.09,0-3.84,.65-5.26,2.22-.78,.87-1.64,1.67-2.49,2.48-.13,.13-.35,.24-.53,.24-3.82,.01-7.64,.01-11.46,0-.07,0-.14,0-.26-.02,.06-.08,.08-.13,.12-.17,3.29-3.26,6.57-6.51,9.86-9.76,1.78-1.75,3.94-2.67,6.42-2.81,2.09-.12,4.18-.21,6.26-.21,9.05-.02,18.11,0,27.16,0,.16,0,.33,0,.62,0Z"/>
        <path class="cls-1" d="M77.82,20.22c.52-.16,.73,.05,.85,.48,.16,.56,.38,1.1,.61,1.75,.29-.83,.54-1.54,.79-2.26h.66v2.81c-.13,0-.24,.02-.41,.03v-2.01s-.08-.01-.12-.02c-.2,.57-.4,1.14-.62,1.7-.05,.13-.19,.22-.29,.33-.11-.11-.27-.2-.33-.34-.22-.55-.42-1.12-.69-1.68v1.99h-.45v-2.79Z"/>
        <path class="cls-1" d="M77.41,20.17v.41h-.87v2.42c-.19,.01-.33,.02-.52,.03v-2.43h-.85c-.1-.29-.09-.44,.26-.43,.66,.02,1.31,0,1.98,0Z"/>
      </g>
    </g>
  </g>
</svg>