<svg width="95" height="30" viewBox="0 0 95 30" fill="none" xmlns="http://www.w3.org/2000/svg">
<path d="M0 0.00311809V9.93344H14.8097C17.5364 9.93344 19.7452 12.1547 19.7452 14.897C19.7452 17.6394 17.5364 19.8607 14.8097 19.8607H0V29.791H18.3507C24.5778 29.791 29.6225 24.7151 29.6225 18.4536V11.3717C29.6225 5.09152 24.5591 0 18.3132 0H0V0.00311809Z" fill="#1D1D1B"/>
<path d="M40.7352 0.779938H44.7504C45.5522 0.779938 46.2011 1.04512 46.6972 1.57861C47.1932 2.11209 47.4428 2.86708 47.4428 3.84046C47.4428 4.40203 47.3648 4.87311 47.2119 5.25685C47.0591 5.64059 46.8594 5.93697 46.6223 6.14911C46.3852 6.36126 46.1325 6.48918 45.8735 6.53909V6.7138C46.1512 6.72628 46.4351 6.83547 46.7315 7.04138C47.0279 7.24728 47.2806 7.56862 47.4865 8.00227C47.6924 8.43592 47.7985 8.99749 47.7985 9.69321C47.7985 10.4607 47.6643 11.1096 47.396 11.64C47.1277 12.1703 46.7752 12.5728 46.3353 12.8473C45.8954 13.1219 45.4243 13.2591 44.9158 13.2591H40.7352V0.783056V0.779938ZM43.2654 5.67802H44.0578C44.2731 5.67802 44.4478 5.62187 44.5819 5.50955C44.7161 5.39724 44.8159 5.25061 44.8783 5.06966C44.9407 4.88872 44.9719 4.69841 44.9719 4.49874C44.9719 4.15868 44.8908 3.8779 44.7317 3.66263C44.5726 3.44736 44.3417 3.33817 44.0453 3.33817H43.2654V5.67802ZM43.2654 10.6947H44.1358C44.5133 10.6947 44.7879 10.5574 44.9563 10.2797C45.1248 10.0021 45.209 9.67449 45.209 9.297C45.209 9.03493 45.1716 8.80094 45.0936 8.59815C45.0156 8.39537 44.897 8.23314 44.7379 8.11771C44.5788 8.00228 44.3729 7.943 44.1265 7.943H43.2685V10.6947H43.2654Z" fill="#1D1D1B"/>
<path d="M48.3475 13.256L50.8715 0.779938H54.1129L56.6119 13.256H53.8821L53.5233 10.8975H51.2489L50.8777 13.256H48.3475ZM52.3378 3.95278L51.667 8.20194H53.1115L52.4657 3.95278H52.3378Z" fill="#1D1D1B"/>
<path d="M61.9998 9.87106C62.212 9.56844 62.3212 9.08175 62.3212 8.40475V0.783081H64.8794V8.94448C64.8794 9.85858 64.7296 10.6541 64.4333 11.3343C64.1369 12.0144 63.7126 12.5385 63.1635 12.9097C62.6144 13.281 61.9593 13.4682 61.198 13.4682C60.4368 13.4682 59.7848 13.281 59.2326 12.9097C58.6803 12.5385 58.2592 12.0112 57.9628 11.3343C57.6664 10.6573 57.5167 9.85858 57.5167 8.94448V0.783081H60.0749V8.40475C60.0749 9.09423 60.181 9.58404 60.3962 9.88042C60.6115 10.1768 60.8767 10.3234 61.198 10.3234C61.5194 10.3234 61.7846 10.1737 61.9998 9.87106Z" fill="#1D1D1B"/>
<path d="M70.105 0.779938C71.0066 0.779938 71.7367 1.03576 72.2982 1.54741C72.8598 2.05905 73.2716 2.77661 73.5337 3.70007C73.7958 4.62353 73.9268 5.70298 73.9268 6.94154C73.9268 8.1801 73.7926 9.30012 73.5243 10.2517C73.256 11.2032 72.8411 11.9426 72.2795 12.4667C71.718 12.9908 70.9942 13.256 70.1081 13.256H66.4954V0.779938H70.1081H70.105ZM69.0505 10.3047H69.6371C69.9428 10.3047 70.2017 10.2392 70.4139 10.105C70.626 9.97087 70.7976 9.76808 70.9287 9.49666C71.0597 9.22524 71.1533 8.88518 71.2157 8.47649C71.2781 8.06779 71.3061 7.59358 71.3061 7.05074C71.3061 6.32694 71.25 5.71546 71.1408 5.22253C71.0316 4.7296 70.8538 4.35835 70.6104 4.10877C70.3671 3.85918 70.0426 3.73439 69.6371 3.73439H69.0505V10.3047Z" fill="#1D1D1B"/>
<path d="M80.8808 1.31343C81.3675 1.66909 81.7357 2.17138 81.9852 2.81718C82.2348 3.46298 82.3565 4.21485 82.3565 5.07591C82.3565 5.76539 82.2691 6.35191 82.0913 6.8386C81.9135 7.32529 81.7107 7.71527 81.4829 8.00853C81.2552 8.30179 81.0587 8.50145 80.8995 8.61065L82.5312 13.2529H79.7234L78.3881 9.09421H77.7485V13.2529H75.2433V0.776825H79.0589C79.7858 0.776825 80.3941 0.954656 80.8808 1.31031V1.31343ZM78.6689 6.53598C78.9497 6.53598 79.193 6.41431 79.402 6.17408C79.6111 5.93386 79.7171 5.55948 79.7171 5.05407C79.7171 4.54867 79.6111 4.15869 79.3927 3.90599C79.1743 3.65328 78.9372 3.52537 78.6689 3.52537H77.7485V6.53286H78.6689V6.53598Z" fill="#1D1D1B"/>
<path d="M85.3952 13.256V9.49978L82.603 0.779938H85.3765L86.6743 5.68738H86.7648L88.0751 0.779938H90.7425L87.9503 9.38123V13.256H85.3921H85.3952Z" fill="#1D1D1B"/>
<path d="M46.3103 18.1541C46.7721 18.5815 47.1152 19.1369 47.3399 19.8232C47.5645 20.5096 47.6768 21.2458 47.6768 22.032C47.6768 22.8182 47.5614 23.567 47.3336 24.2408C47.1059 24.9147 46.7533 25.4576 46.2854 25.8631C45.8143 26.2718 45.2184 26.4746 44.4977 26.4746H43.2623V29.7941H40.6448V17.5177H44.5352C45.2558 17.5177 45.8455 17.7298 46.3103 18.1572V18.1541ZM44.6974 20.7404C44.4759 20.4503 44.1858 20.3037 43.8239 20.3037H43.2498V23.7573H43.8239C44.0641 23.7573 44.2762 23.6886 44.4572 23.5545C44.6381 23.4203 44.7785 23.2238 44.8783 22.9648C44.9782 22.7059 45.0281 22.3939 45.0281 22.0289C45.0281 21.458 44.9189 21.0306 44.6974 20.7373V20.7404Z" fill="#1D1D1B"/>
<path d="M47.9326 29.7941L50.5189 17.5177H53.8415L56.4029 29.7941H53.6044L53.2363 27.473H50.9058L50.5252 29.7941H47.9326ZM52.0227 20.6375L51.3363 24.818H52.8182L52.1568 20.6375H52.0258H52.0227Z" fill="#1D1D1B"/>
<path d="M59.3386 26.0347C59.3417 26.1782 59.3729 26.3217 59.426 26.4621C59.479 26.6025 59.5601 26.7304 59.6631 26.849C59.766 26.9675 59.897 27.058 60.0499 27.1267C60.2028 27.1953 60.3837 27.2296 60.5865 27.2296C60.8517 27.2296 61.0639 27.1859 61.2198 27.0955C61.3758 27.005 61.4881 26.8864 61.5568 26.7398C61.6254 26.5932 61.6597 26.4341 61.6597 26.2687C61.6597 25.9505 61.5568 25.7228 61.3509 25.5792C61.145 25.4388 60.8517 25.3203 60.468 25.2236L59.4384 24.9615C58.9705 24.843 58.5555 24.6402 58.1905 24.3594C57.8255 24.0786 57.5354 23.6886 57.3295 23.1895C57.1204 22.6903 57.0175 22.0663 57.0175 21.3082C57.0175 20.4628 57.1641 19.7421 57.4605 19.1462C57.7569 18.5503 58.1687 18.0948 58.699 17.7829C59.2294 17.4709 59.8502 17.3149 60.5584 17.3149C61.3633 17.3149 62.0216 17.5052 62.5364 17.8858C63.0512 18.2664 63.4318 18.7531 63.6782 19.3459C63.9247 19.9386 64.0495 20.5564 64.0495 21.199H61.6753C61.6722 21.0243 61.6285 20.8496 61.5505 20.6718C61.4725 20.494 61.3509 20.3442 61.1886 20.2225C61.0264 20.1009 60.8174 20.0385 60.5647 20.0385C60.2309 20.0385 59.9906 20.1321 59.8409 20.3224C59.6911 20.5127 59.6163 20.7373 59.6163 21.0025C59.6163 21.2677 59.7161 21.4705 59.9126 21.6171C60.1092 21.7637 60.3806 21.876 60.7269 21.954L61.8188 22.1974C62.2151 22.2816 62.5957 22.4501 62.9607 22.6997C63.3257 22.9524 63.6283 23.3299 63.8654 23.8321C64.1025 24.3344 64.2211 25.0114 64.2211 25.8569C64.2211 26.6556 64.0869 27.3638 63.8186 27.9877C63.5503 28.6117 63.1416 29.1015 62.5988 29.4572C62.0528 29.8128 61.3633 29.9906 60.5304 29.9906C59.8315 29.9906 59.2481 29.8752 58.777 29.6443C58.3091 29.4135 57.9347 29.1046 57.657 28.7178C57.3794 28.3309 57.1766 27.9035 57.058 27.4355C56.9364 26.9675 56.8771 26.4965 56.8771 26.0222H59.3386V26.0347Z" fill="#1D1D1B"/>
<path d="M67.6966 26.0347C67.6997 26.1782 67.7309 26.3217 67.7839 26.4621C67.837 26.6025 67.9181 26.7304 68.021 26.849C68.124 26.9675 68.255 27.058 68.4079 27.1267C68.5607 27.1953 68.7417 27.2296 68.9445 27.2296C69.2097 27.2296 69.4218 27.1859 69.5778 27.0955C69.7338 27.005 69.8461 26.8864 69.9147 26.7398C69.9834 26.5932 70.0177 26.4341 70.0177 26.2687C70.0177 25.9505 69.9147 25.7228 69.7088 25.5792C69.5029 25.4388 69.2097 25.3203 68.8259 25.2236L67.7964 24.9615C67.3284 24.843 66.9135 24.6402 66.5485 24.3594C66.1835 24.0786 65.8933 23.6886 65.6874 23.1895C65.4784 22.6903 65.3754 22.0663 65.3754 21.3082C65.3754 20.4628 65.5221 19.7421 65.8184 19.1462C66.1148 18.5503 66.5266 18.0948 67.057 17.7829C67.5874 17.4709 68.2082 17.3149 68.9164 17.3149C69.7213 17.3149 70.3796 17.5052 70.8944 17.8858C71.4091 18.2664 71.7897 18.7531 72.0362 19.3459C72.2827 19.9386 72.4075 20.5564 72.4075 21.199H70.0333C70.0302 21.0243 69.9865 20.8496 69.9085 20.6718C69.8305 20.494 69.7088 20.3442 69.5466 20.2225C69.3844 20.1009 69.1754 20.0385 68.9227 20.0385C68.5888 20.0385 68.3486 20.1321 68.1989 20.3224C68.0491 20.5127 67.9742 20.7373 67.9742 21.0025C67.9742 21.2677 68.0741 21.4705 68.2706 21.6171C68.4672 21.7637 68.7386 21.876 69.0849 21.954L70.1768 22.1974C70.573 22.2816 70.9536 22.4501 71.3187 22.6997C71.6837 22.9524 71.9863 23.3299 72.2234 23.8321C72.4605 24.3344 72.5791 25.0114 72.5791 25.8569C72.5791 26.6556 72.4449 27.3638 72.1766 27.9877C71.9083 28.6117 71.4996 29.1015 70.9568 29.4572C70.4108 29.8128 69.7213 29.9906 68.8883 29.9906C68.1895 29.9906 67.6061 29.8752 67.135 29.6443C66.667 29.4135 66.2927 29.1046 66.015 28.7178C65.7373 28.3309 65.5345 27.9035 65.416 27.4355C65.2943 26.9675 65.235 26.4965 65.235 26.0222H67.6966V26.0347Z" fill="#1D1D1B"/>
<path d="M73.9518 29.7941V17.5177H76.5755V29.7941H73.9518Z" fill="#1D1D1B"/>
<path d="M85.5637 27.2889C85.2548 28.15 84.8024 28.8176 84.2066 29.2887C83.6076 29.7629 82.8744 30 82.004 30C81.1336 30 80.4066 29.7629 79.8045 29.2887C79.2024 28.8145 78.75 28.1468 78.4412 27.2889C78.1323 26.431 77.9763 25.4264 77.9763 24.2814V23.0772C77.9763 21.9135 78.1323 20.8995 78.4412 20.0385C78.75 19.1774 79.2055 18.5067 79.8045 18.0325C80.4035 17.5582 81.1367 17.3211 82.004 17.3211C82.8713 17.3211 83.6076 17.5614 84.2066 18.0418C84.8056 18.5223 85.2579 19.193 85.5637 20.051C85.8725 20.912 86.0254 21.9197 86.0254 23.0772V24.2814C86.0254 25.4264 85.8725 26.431 85.5637 27.2889ZM83.177 21.536C83.0678 21.1335 82.915 20.8309 82.7184 20.6219C82.5219 20.416 82.2816 20.3099 82.004 20.3099C81.7263 20.3099 81.4861 20.4129 81.2864 20.6219C81.0868 20.8309 80.9339 21.1335 80.8247 21.536C80.7155 21.9384 80.6625 22.4314 80.6625 23.021V24.297C80.6625 24.8835 80.7155 25.3796 80.8247 25.7851C80.9339 26.1907 81.0868 26.4934 81.2864 26.6993C81.4861 26.9052 81.7263 27.005 82.004 27.005C82.2816 27.005 82.5219 26.902 82.7184 26.6993C82.915 26.4965 83.0678 26.1907 83.177 25.7851C83.2862 25.3796 83.3393 24.8835 83.3393 24.297V23.021C83.3393 22.4345 83.2862 21.9384 83.177 21.536Z" fill="#1D1D1B"/>
<path d="M87.4262 29.7941V17.5177H89.3948L92.2993 23.4547H92.3992V17.5177H94.8045V29.7941H92.8547L89.9314 23.751H89.8316V29.7941H87.4262Z" fill="#1D1D1B"/>
</svg>
