<svg width="209" height="30" viewBox="0 0 209 30" fill="none" xmlns="http://www.w3.org/2000/svg">
<path d="M186.785 0.0130152C186.655 0.156182 186.538 0.312364 186.408 0.455531C182.946 3.90456 179.484 7.35358 176.035 10.8156C175.735 11.115 175.423 11.2321 175.007 11.2321C160.95 11.2321 146.881 11.2191 132.824 11.2842C130.664 11.2842 128.49 11.5445 126.356 11.9089C123.662 12.3644 121.514 13.9393 119.588 15.7874C114.798 20.3688 110.022 24.9631 105.258 29.5705C104.959 29.8568 104.672 30 104.243 30C99.0369 29.987 93.8308 30 88.6117 30H88C88.1041 29.8568 88.1432 29.7657 88.2213 29.6876C95.2755 22.6985 102.304 15.6833 109.41 8.7462C111.037 7.15835 112.846 5.71367 114.668 4.34707C117.792 2.03037 121.41 0.911063 125.236 0.494577C127.124 0.286334 129.024 0.221258 130.911 0.0911063C131.119 0.0780911 131.341 0.0390455 131.549 0C149.952 0 168.369 0 186.772 0L186.785 0.0130152Z" fill="#EE0000"/>
<path d="M208.052 0.013031C207.922 0.182228 207.805 0.351426 207.649 0.494593C197.939 10.1779 188.23 19.8482 178.534 29.5315C178.195 29.8699 177.87 29.987 177.401 29.987C171.883 29.974 166.351 29.987 160.833 29.987C160.625 29.987 160.403 29.987 160.039 29.987C160.286 29.7267 160.455 29.5445 160.625 29.3883C170.243 19.7961 179.874 10.1909 189.492 0.598714C189.688 0.403486 189.87 0.208259 190.065 0.013031C196.052 0.013031 202.052 0.013031 208.039 0.013031L208.052 0.013031Z" fill="#EE0000"/>
<path d="M173.679 13.0933C173.445 13.3536 173.315 13.4968 173.184 13.6269C170.048 16.7636 166.898 19.8872 163.761 23.0369C163.423 23.3753 163.085 23.5315 162.59 23.5315C153.076 23.5315 143.562 23.5575 134.048 23.5315C131.328 23.5315 129.05 24.3774 127.202 26.4208C126.187 27.5531 125.067 28.5944 123.961 29.6486C123.792 29.8178 123.505 29.961 123.271 29.961C118.299 29.974 113.328 29.974 108.356 29.961C108.265 29.961 108.174 29.961 108.017 29.9349C108.095 29.8308 108.121 29.7657 108.174 29.7137C112.456 25.4707 116.724 21.2408 121.006 17.0109C123.323 14.7332 126.134 13.5358 129.362 13.3536C132.082 13.1974 134.803 13.0803 137.51 13.0803C149.288 13.0542 161.08 13.0803 172.859 13.0803C173.067 13.0803 173.288 13.0803 173.666 13.0803L173.679 13.0933Z" fill="#EE0000"/>
<path d="M189.271 26.3297C189.948 26.1215 190.221 26.3948 190.377 26.9545C190.586 27.6833 190.872 28.3861 191.171 29.2321C191.549 28.1519 191.874 27.2278 192.2 26.2907H193.059V29.9479C192.889 29.9479 192.746 29.974 192.525 29.987V27.3709C192.525 27.3709 192.421 27.3579 192.369 27.3449C192.108 28.0868 191.848 28.8286 191.562 29.5575C191.497 29.7267 191.315 29.8438 191.184 29.987C191.041 29.8438 190.833 29.7267 190.755 29.5445C190.469 28.8286 190.208 28.0868 189.857 27.3579V29.9479H189.271V26.3167V26.3297Z" fill="#EE0000"/>
<path d="M188.737 26.2646V26.7983H187.605V29.9479C187.358 29.961 187.176 29.974 186.928 29.987V26.8243H185.822C185.692 26.4469 185.705 26.2516 186.16 26.2646C187.019 26.2907 187.865 26.2646 188.737 26.2646V26.2646Z" fill="#EE0000"/>
<path d="M62.6018 9.43455C62.7294 9.29966 62.8827 9.19172 63.0527 9.11711C63.2227 9.04249 63.406 9.00272 63.5916 9.00013C63.7773 8.99755 63.9615 9.03222 64.1336 9.10207C64.3056 9.17193 64.4619 9.27557 64.5932 9.40686C64.7244 9.53815 64.8281 9.69442 64.8979 9.86645C64.9678 10.0385 65.0024 10.2228 64.9999 10.4084C64.9973 10.5941 64.9575 10.7773 64.8829 10.9473C64.8083 11.1174 64.7003 11.2707 64.5655 11.3983L60.4955 15.4683C60.4901 15.4737 60.4858 15.4801 60.4829 15.4871C60.48 15.4942 60.4785 15.5017 60.4785 15.5093C60.4785 15.5169 60.48 15.5245 60.4829 15.5315C60.4858 15.5385 60.4901 15.5449 60.4955 15.5503L64.5655 19.6203C64.6962 19.7489 64.8002 19.9021 64.8714 20.0711C64.9426 20.2401 64.9797 20.4215 64.9804 20.6048C64.9812 20.7882 64.9457 20.9699 64.8759 21.1395C64.8061 21.3091 64.7034 21.4631 64.5737 21.5928C64.4441 21.7225 64.29 21.8252 64.1205 21.895C63.9509 21.9649 63.7693 22.0005 63.5859 21.9998C63.4025 21.999 63.2211 21.962 63.0521 21.8908C62.8831 21.8196 62.7299 21.7157 62.6013 21.585L58.5313 17.5149C58.5259 17.5095 58.5196 17.5053 58.5125 17.5024C58.5055 17.4994 58.498 17.4979 58.4903 17.4979C58.4827 17.4979 58.4752 17.4994 58.4682 17.5024C58.4611 17.5053 58.4547 17.5095 58.4494 17.5149L54.3794 21.585C54.2508 21.7157 54.0976 21.8197 53.9286 21.8909C53.7597 21.9622 53.5783 21.9992 53.3949 22C53.2115 22.0008 53.0298 21.9652 52.8603 21.8954C52.6907 21.8256 52.5366 21.7229 52.407 21.5933C52.2773 21.4636 52.1746 21.3096 52.1047 21.14C52.0349 20.9705 51.9993 20.7888 52 20.6054C52.0007 20.422 52.0378 20.2406 52.1089 20.0716C52.1801 19.9027 52.2841 19.7494 52.4148 19.6208L56.4848 15.5508C56.4901 15.5454 56.4944 15.539 56.4973 15.532C56.5003 15.5249 56.5018 15.5174 56.5018 15.5098C56.5018 15.5022 56.5003 15.4946 56.4973 15.4876C56.4944 15.4806 56.4901 15.4742 56.4848 15.4688L52.4148 11.3987C52.1577 11.1375 52.0143 10.7854 52.0158 10.4189C52.0172 10.0525 52.1634 9.70144 52.4225 9.44228C52.6816 9.18313 53.0326 9.03686 53.399 9.03532C53.7655 9.03379 54.1177 9.17712 54.3789 9.43409L58.4489 13.5041C58.4543 13.5095 58.4607 13.5138 58.4677 13.5167C58.4747 13.5196 58.4823 13.5212 58.4899 13.5212C58.4975 13.5212 58.505 13.5196 58.5121 13.5167C58.5191 13.5138 58.5255 13.5095 58.5309 13.5041L62.6008 9.43409L62.6018 9.43455Z" fill="black"/>
<path d="M0 0.00310324V9.88615H14.7392C17.4529 9.88615 19.6512 12.0969 19.6512 14.8261C19.6512 17.5554 17.4529 19.7661 14.7392 19.7661H0V29.6492H18.2633C24.4608 29.6492 29.4815 24.5974 29.4815 18.3658V11.3175C29.4815 5.06728 24.4422 0 18.226 0H0V0.00310324Z" fill="#1D1D1B"/>
</svg>
