<svg width="304" height="97" viewBox="0 0 304 97" fill="none" xmlns="http://www.w3.org/2000/svg">
<path d="M0 0.720016V32.55H47.47C56.21 32.55 63.29 39.67 63.29 48.46C63.29 57.25 56.21 64.37 47.47 64.37H0V96.2H58.82C78.78 96.2 94.95 79.93 94.95 59.86V37.16C94.95 17.03 78.72 0.710022 58.7 0.710022H0V0.720016Z" fill="#1D1D1B"/>
<path d="M130.57 3.21002H143.44C146.01 3.21002 148.09 4.06002 149.68 5.77002C151.27 7.48002 152.07 9.90002 152.07 13.02C152.07 14.82 151.82 16.33 151.33 17.56C150.84 18.79 150.2 19.74 149.44 20.42C148.68 21.1 147.87 21.51 147.04 21.67V22.23C147.93 22.27 148.84 22.62 149.79 23.28C150.74 23.94 151.55 24.97 152.21 26.36C152.87 27.75 153.21 29.55 153.21 31.78C153.21 34.24 152.78 36.32 151.92 38.02C151.06 39.72 149.93 41.01 148.52 41.89C147.11 42.77 145.6 43.21 143.97 43.21H130.57V3.22002V3.21002ZM138.68 18.91H141.22C141.91 18.91 142.47 18.73 142.9 18.37C143.33 18.01 143.65 17.54 143.85 16.96C144.05 16.38 144.15 15.77 144.15 15.13C144.15 14.04 143.89 13.14 143.38 12.45C142.87 11.76 142.13 11.41 141.18 11.41H138.68V18.91ZM138.68 34.99H141.47C142.68 34.99 143.56 34.55 144.1 33.66C144.64 32.77 144.91 31.72 144.91 30.51C144.91 29.67 144.79 28.92 144.54 28.27C144.29 27.62 143.91 27.1 143.4 26.73C142.89 26.36 142.23 26.17 141.44 26.17H138.69V34.99H138.68Z" fill="#1D1D1B"/>
<path d="M154.97 43.2L163.06 3.21002H173.45L181.46 43.2H172.71L171.56 35.64H164.27L163.08 43.2H154.97ZM167.76 13.38L165.61 27H170.24L168.17 13.38H167.76Z" fill="#1D1D1B"/>
<path d="M198.73 32.35C199.41 31.38 199.76 29.82 199.76 27.65V3.22002H207.96V29.38C207.96 32.31 207.48 34.86 206.53 37.04C205.58 39.22 204.22 40.9 202.46 42.09C200.7 43.28 198.6 43.88 196.16 43.88C193.72 43.88 191.63 43.28 189.86 42.09C188.09 40.9 186.74 39.21 185.79 37.04C184.84 34.87 184.36 32.31 184.36 29.38V3.22002H192.56V27.65C192.56 29.86 192.9 31.43 193.59 32.38C194.28 33.33 195.13 33.8 196.16 33.8C197.19 33.8 198.04 33.32 198.73 32.35Z" fill="#1D1D1B"/>
<path d="M224.71 3.21002C227.6 3.21002 229.94 4.03001 231.74 5.67001C233.54 7.31001 234.86 9.61002 235.7 12.57C236.54 15.53 236.96 18.99 236.96 22.96C236.96 26.93 236.53 30.52 235.67 33.57C234.81 36.62 233.48 38.99 231.68 40.67C229.88 42.35 227.56 43.2 224.72 43.2H213.14V3.21002H224.72H224.71ZM221.33 33.74H223.21C224.19 33.74 225.02 33.53 225.7 33.1C226.38 32.67 226.93 32.02 227.35 31.15C227.77 30.28 228.07 29.19 228.27 27.88C228.47 26.57 228.56 25.05 228.56 23.31C228.56 20.99 228.38 19.03 228.03 17.45C227.68 15.87 227.11 14.68 226.33 13.88C225.55 13.08 224.51 12.68 223.21 12.68H221.33V33.74Z" fill="#1D1D1B"/>
<path d="M259.25 4.92001C260.81 6.06001 261.99 7.67002 262.79 9.74002C263.59 11.81 263.98 14.22 263.98 16.98C263.98 19.19 263.7 21.07 263.13 22.63C262.56 24.19 261.91 25.44 261.18 26.38C260.45 27.32 259.82 27.96 259.31 28.31L264.54 43.19H255.54L251.26 29.86H249.21V43.19H241.18V3.20001H253.41C255.74 3.20001 257.69 3.77002 259.25 4.91002V4.92001ZM252.16 21.66C253.06 21.66 253.84 21.27 254.51 20.5C255.18 19.73 255.52 18.53 255.52 16.91C255.52 15.29 255.18 14.04 254.48 13.23C253.78 12.42 253.02 12.01 252.16 12.01H249.21V21.65H252.16V21.66Z" fill="#1D1D1B"/>
<path d="M273.72 43.2V31.16L264.77 3.21002H273.66L277.82 18.94H278.11L282.31 3.21002H290.86L281.91 30.78V43.2H273.71H273.72Z" fill="#1D1D1B"/>
<path d="M148.44 58.9C149.92 60.27 151.02 62.05 151.74 64.25C152.46 66.45 152.82 68.81 152.82 71.33C152.82 73.85 152.45 76.25 151.72 78.41C150.99 80.57 149.86 82.31 148.36 83.61C146.85 84.92 144.94 85.57 142.63 85.57H138.67V96.21H130.28V56.86H142.75C145.06 56.86 146.95 57.54 148.44 58.91V58.9ZM143.27 67.19C142.56 66.26 141.63 65.79 140.47 65.79H138.63V76.86H140.47C141.24 76.86 141.92 76.64 142.5 76.21C143.08 75.78 143.53 75.15 143.85 74.32C144.17 73.49 144.33 72.49 144.33 71.32C144.33 69.49 143.98 68.12 143.27 67.18V67.19Z" fill="#1D1D1B"/>
<path d="M153.64 96.21L161.93 56.86H172.58L180.79 96.21H171.82L170.64 88.77H163.17L161.95 96.21H153.64ZM166.75 66.86L164.55 80.26H169.3L167.18 66.86H166.76H166.75Z" fill="#1D1D1B"/>
<path d="M190.2 84.16C190.21 84.62 190.31 85.08 190.48 85.53C190.65 85.98 190.91 86.39 191.24 86.77C191.57 87.15 191.99 87.44 192.48 87.66C192.97 87.88 193.55 87.99 194.2 87.99C195.05 87.99 195.73 87.85 196.23 87.56C196.73 87.27 197.09 86.89 197.31 86.42C197.53 85.95 197.64 85.44 197.64 84.91C197.64 83.89 197.31 83.16 196.65 82.7C195.99 82.25 195.05 81.87 193.82 81.56L190.52 80.72C189.02 80.34 187.69 79.69 186.52 78.79C185.35 77.89 184.42 76.64 183.76 75.04C183.09 73.44 182.76 71.44 182.76 69.01C182.76 66.3 183.23 63.99 184.18 62.08C185.13 60.17 186.45 58.71 188.15 57.71C189.85 56.71 191.84 56.21 194.11 56.21C196.69 56.21 198.8 56.82 200.45 58.04C202.1 59.26 203.32 60.82 204.11 62.72C204.9 64.62 205.3 66.6 205.3 68.66H197.69C197.68 68.1 197.54 67.54 197.29 66.97C197.04 66.4 196.65 65.92 196.13 65.53C195.61 65.14 194.94 64.94 194.13 64.94C193.06 64.94 192.29 65.24 191.81 65.85C191.33 66.46 191.09 67.18 191.09 68.03C191.09 68.88 191.41 69.53 192.04 70C192.67 70.47 193.54 70.83 194.65 71.08L198.15 71.86C199.42 72.13 200.64 72.67 201.81 73.47C202.98 74.28 203.95 75.49 204.71 77.1C205.47 78.71 205.85 80.88 205.85 83.59C205.85 86.15 205.42 88.42 204.56 90.42C203.7 92.42 202.39 93.99 200.65 95.13C198.9 96.27 196.69 96.84 194.02 96.84C191.78 96.84 189.91 96.47 188.4 95.73C186.9 94.99 185.7 94 184.81 92.76C183.92 91.52 183.27 90.15 182.89 88.65C182.5 87.15 182.31 85.64 182.31 84.12H190.2V84.16Z" fill="#1D1D1B"/>
<path d="M216.99 84.16C217 84.62 217.1 85.08 217.27 85.53C217.44 85.98 217.7 86.39 218.03 86.77C218.36 87.15 218.78 87.44 219.27 87.66C219.76 87.88 220.34 87.99 220.99 87.99C221.84 87.99 222.52 87.85 223.02 87.56C223.52 87.27 223.88 86.89 224.1 86.42C224.32 85.95 224.43 85.44 224.43 84.91C224.43 83.89 224.1 83.16 223.44 82.7C222.78 82.25 221.84 81.87 220.61 81.56L217.31 80.72C215.81 80.34 214.48 79.69 213.31 78.79C212.14 77.89 211.21 76.64 210.55 75.04C209.88 73.44 209.55 71.44 209.55 69.01C209.55 66.3 210.02 63.99 210.97 62.08C211.92 60.17 213.24 58.71 214.94 57.71C216.64 56.71 218.63 56.21 220.9 56.21C223.48 56.21 225.59 56.82 227.24 58.04C228.89 59.26 230.11 60.82 230.9 62.72C231.69 64.62 232.09 66.6 232.09 68.66H224.48C224.47 68.1 224.33 67.54 224.08 66.97C223.83 66.4 223.44 65.92 222.92 65.53C222.4 65.14 221.73 64.94 220.92 64.94C219.85 64.94 219.08 65.24 218.6 65.85C218.12 66.46 217.88 67.18 217.88 68.03C217.88 68.88 218.2 69.53 218.83 70C219.46 70.47 220.33 70.83 221.44 71.08L224.94 71.86C226.21 72.13 227.43 72.67 228.6 73.47C229.77 74.28 230.74 75.49 231.5 77.1C232.26 78.71 232.64 80.88 232.64 83.59C232.64 86.15 232.21 88.42 231.35 90.42C230.49 92.42 229.18 93.99 227.44 95.13C225.69 96.27 223.48 96.84 220.81 96.84C218.57 96.84 216.7 96.47 215.19 95.73C213.69 94.99 212.49 94 211.6 92.76C210.71 91.52 210.06 90.15 209.68 88.65C209.29 87.15 209.1 85.64 209.1 84.12H216.99V84.16Z" fill="#1D1D1B"/>
<path d="M237.04 96.21V56.86H245.45V96.21H237.04Z" fill="#1D1D1B"/>
<path d="M274.26 88.18C273.27 90.94 271.82 93.08 269.91 94.59C267.99 96.11 265.64 96.87 262.85 96.87C260.06 96.87 257.73 96.11 255.8 94.59C253.87 93.07 252.42 90.93 251.43 88.18C250.44 85.43 249.94 82.21 249.94 78.54V74.68C249.94 70.95 250.44 67.7 251.43 64.94C252.42 62.18 253.88 60.03 255.8 58.51C257.72 56.99 260.07 56.23 262.85 56.23C265.63 56.23 267.99 57 269.91 58.54C271.83 60.08 273.28 62.23 274.26 64.98C275.25 67.74 275.74 70.97 275.74 74.68V78.54C275.74 82.21 275.25 85.43 274.26 88.18ZM266.61 69.74C266.26 68.45 265.77 67.48 265.14 66.81C264.51 66.15 263.74 65.81 262.85 65.81C261.96 65.81 261.19 66.14 260.55 66.81C259.91 67.48 259.42 68.45 259.07 69.74C258.72 71.03 258.55 72.61 258.55 74.5V78.59C258.55 80.47 258.72 82.06 259.07 83.36C259.42 84.66 259.91 85.63 260.55 86.29C261.19 86.95 261.96 87.27 262.85 87.27C263.74 87.27 264.51 86.94 265.14 86.29C265.77 85.64 266.26 84.66 266.61 83.36C266.96 82.06 267.13 80.47 267.13 78.59V74.5C267.13 72.62 266.96 71.03 266.61 69.74Z" fill="#1D1D1B"/>
<path d="M280.23 96.21V56.86H286.54L295.85 75.89H296.17V56.86H303.88V96.21H297.63L288.26 76.84H287.94V96.21H280.23Z" fill="#1D1D1B"/>
</svg>
