<svg width="287" height="30" viewBox="0 0 287 30" fill="none" xmlns="http://www.w3.org/2000/svg">
<path d="M264.785 0.0130152C264.655 0.156182 264.538 0.312364 264.408 0.455531C260.946 3.90456 257.484 7.35358 254.035 10.8156C253.735 11.115 253.423 11.2321 253.007 11.2321C238.95 11.2321 224.881 11.2191 210.824 11.2842C208.664 11.2842 206.49 11.5445 204.356 11.9089C201.662 12.3644 199.514 13.9393 197.588 15.7874C192.798 20.3688 188.022 24.9631 183.258 29.5705C182.959 29.8568 182.672 30 182.243 30C177.037 29.987 171.831 30 166.612 30H166C166.104 29.8568 166.143 29.7657 166.221 29.6876C173.275 22.6985 180.304 15.6833 187.41 8.7462C189.037 7.15835 190.846 5.71367 192.668 4.34707C195.792 2.03037 199.41 0.911063 203.236 0.494577C205.124 0.286334 207.024 0.221258 208.911 0.0911063C209.119 0.0780911 209.341 0.0390455 209.549 0C227.952 0 246.369 0 264.772 0L264.785 0.0130152Z" fill="#EE0000"/>
<path d="M286.052 0.013031C285.922 0.182228 285.805 0.351426 285.649 0.494593C275.939 10.1779 266.23 19.8482 256.534 29.5315C256.195 29.8699 255.87 29.987 255.401 29.987C249.883 29.974 244.351 29.987 238.833 29.987C238.625 29.987 238.403 29.987 238.039 29.987C238.286 29.7267 238.455 29.5445 238.625 29.3883C248.243 19.7961 257.874 10.1909 267.492 0.598714C267.688 0.403486 267.87 0.208259 268.065 0.013031C274.052 0.013031 280.052 0.013031 286.039 0.013031L286.052 0.013031Z" fill="#EE0000"/>
<path d="M251.679 13.0933C251.445 13.3536 251.315 13.4968 251.184 13.6269C248.048 16.7636 244.898 19.8872 241.761 23.0369C241.423 23.3753 241.085 23.5315 240.59 23.5315C231.076 23.5315 221.562 23.5575 212.048 23.5315C209.328 23.5315 207.05 24.3774 205.202 26.4208C204.187 27.5531 203.067 28.5944 201.961 29.6486C201.792 29.8178 201.505 29.961 201.271 29.961C196.299 29.974 191.328 29.974 186.356 29.961C186.265 29.961 186.174 29.961 186.017 29.9349C186.095 29.8308 186.121 29.7657 186.174 29.7137C190.456 25.4707 194.724 21.2408 199.006 17.0109C201.323 14.7332 204.134 13.5358 207.362 13.3536C210.082 13.1974 212.803 13.0803 215.51 13.0803C227.288 13.0542 239.08 13.0803 250.859 13.0803C251.067 13.0803 251.288 13.0803 251.666 13.0803L251.679 13.0933Z" fill="#EE0000"/>
<path d="M267.271 26.3297C267.948 26.1215 268.221 26.3948 268.377 26.9545C268.586 27.6833 268.872 28.3861 269.171 29.2321C269.549 28.1519 269.874 27.2278 270.2 26.2907H271.059V29.9479C270.889 29.9479 270.746 29.974 270.525 29.987V27.3709C270.525 27.3709 270.421 27.3579 270.369 27.3449C270.108 28.0868 269.848 28.8286 269.562 29.5575C269.497 29.7267 269.315 29.8438 269.184 29.987C269.041 29.8438 268.833 29.7267 268.755 29.5445C268.469 28.8286 268.208 28.0868 267.857 27.3579V29.9479H267.271V26.3167V26.3297Z" fill="#EE0000"/>
<path d="M266.737 26.2646V26.7983H265.605V29.9479C265.358 29.961 265.176 29.974 264.928 29.987V26.8243H263.822C263.692 26.4469 263.705 26.2516 264.16 26.2646C265.019 26.2907 265.865 26.2646 266.737 26.2646V26.2646Z" fill="#EE0000"/>
<path d="M140.602 9.43455C140.729 9.29966 140.883 9.19172 141.053 9.11711C141.223 9.04249 141.406 9.00272 141.592 9.00013C141.777 8.99755 141.962 9.03222 142.134 9.10207C142.306 9.17193 142.462 9.27557 142.593 9.40686C142.724 9.53815 142.828 9.69442 142.898 9.86645C142.968 10.0385 143.002 10.2228 143 10.4084C142.997 10.5941 142.958 10.7773 142.883 10.9473C142.808 11.1174 142.7 11.2707 142.565 11.3983L138.495 15.4683C138.49 15.4737 138.486 15.4801 138.483 15.4871C138.48 15.4942 138.478 15.5017 138.478 15.5093C138.478 15.5169 138.48 15.5245 138.483 15.5315C138.486 15.5385 138.49 15.5449 138.495 15.5503L142.565 19.6203C142.696 19.7489 142.8 19.9021 142.871 20.0711C142.943 20.2401 142.98 20.4215 142.98 20.6048C142.981 20.7882 142.946 20.9699 142.876 21.1395C142.806 21.3091 142.703 21.4631 142.574 21.5928C142.444 21.7225 142.29 21.8252 142.12 21.895C141.951 21.9649 141.769 22.0005 141.586 21.9998C141.403 21.999 141.221 21.962 141.052 21.8908C140.883 21.8196 140.73 21.7157 140.601 21.585L136.531 17.5149C136.526 17.5095 136.52 17.5053 136.513 17.5024C136.505 17.4994 136.498 17.4979 136.49 17.4979C136.483 17.4979 136.475 17.4994 136.468 17.5024C136.461 17.5053 136.455 17.5095 136.449 17.5149L132.379 21.585C132.251 21.7157 132.098 21.8197 131.929 21.8909C131.76 21.9622 131.578 21.9992 131.395 22C131.212 22.0008 131.03 21.9652 130.86 21.8954C130.691 21.8256 130.537 21.7229 130.407 21.5933C130.277 21.4636 130.175 21.3096 130.105 21.14C130.035 20.9705 129.999 20.7888 130 20.6054C130.001 20.422 130.038 20.2406 130.109 20.0716C130.18 19.9027 130.284 19.7494 130.415 19.6208L134.485 15.5508C134.49 15.5454 134.494 15.539 134.497 15.532C134.5 15.5249 134.502 15.5174 134.502 15.5098C134.502 15.5022 134.5 15.4946 134.497 15.4876C134.494 15.4806 134.49 15.4742 134.485 15.4688L130.415 11.3987C130.158 11.1375 130.014 10.7854 130.016 10.4189C130.017 10.0525 130.163 9.70144 130.422 9.44228C130.682 9.18313 131.033 9.03686 131.399 9.03532C131.765 9.03379 132.118 9.17712 132.379 9.43409L136.449 13.5041C136.454 13.5095 136.461 13.5138 136.468 13.5167C136.475 13.5196 136.482 13.5212 136.49 13.5212C136.497 13.5212 136.505 13.5196 136.512 13.5167C136.519 13.5138 136.525 13.5095 136.531 13.5041L140.601 9.43409L140.602 9.43455Z" fill="black"/>
<path d="M0 0.00310324V9.88615H14.7392C17.4529 9.88615 19.6512 12.0969 19.6512 14.8261C19.6512 17.5554 17.4529 19.7661 14.7392 19.7661H0V29.6492H18.2633C24.4608 29.6492 29.4815 24.5974 29.4815 18.3658V11.3175C29.4815 5.06728 24.4422 0 18.226 0H0V0.00310324Z" fill="#1D1D1B"/>
<path d="M40.5413 0.776245H44.5374C45.3354 0.776245 45.9812 1.04016 46.4749 1.57111C46.9686 2.10206 47.217 2.85345 47.217 3.8222C47.217 4.38109 47.1393 4.84993 46.9872 5.23184C46.835 5.61375 46.6363 5.90872 46.4004 6.11986C46.1644 6.331 45.9129 6.4583 45.6552 6.50798V6.68186C45.9315 6.69428 46.2141 6.80295 46.509 7.00787C46.804 7.2128 47.0555 7.53261 47.2604 7.96419C47.4654 8.39578 47.5709 8.95468 47.5709 9.64708C47.5709 10.4109 47.4374 11.0567 47.1704 11.5846C46.9034 12.1124 46.5525 12.513 46.1147 12.7862C45.6769 13.0594 45.2081 13.196 44.7019 13.196H40.5413V0.779348V0.776245ZM43.0594 5.65101H43.8481C44.0623 5.65101 44.2362 5.59512 44.3697 5.48334C44.5032 5.37157 44.6026 5.22564 44.6647 5.04555C44.7268 4.86546 44.7578 4.67606 44.7578 4.47734C44.7578 4.1389 44.6771 3.85946 44.5188 3.64521C44.3604 3.43097 44.1306 3.3223 43.8357 3.3223H43.0594V5.65101ZM43.0594 10.6438H43.9257C44.3014 10.6438 44.5746 10.5072 44.7423 10.2308C44.91 9.95447 44.9938 9.62845 44.9938 9.25276C44.9938 8.99194 44.9566 8.75906 44.8789 8.55724C44.8013 8.35542 44.6833 8.19397 44.525 8.07909C44.3666 7.9642 44.1617 7.90521 43.9164 7.90521H43.0625V10.6438H43.0594Z" fill="#1D1D1B"/>
<path d="M48.1174 13.1929L50.6293 0.776245H53.8553L56.3424 13.1929H53.6255L53.2685 10.8456H51.005L50.6355 13.1929H48.1174V13.1929ZM52.0886 3.93398L51.421 8.16292H52.8586L52.2159 3.93398H52.0886Z" fill="#1D1D1B"/>
<path d="M61.7046 9.82407C61.9158 9.52289 62.0244 9.03852 62.0244 8.36474V0.779358H64.5705V8.9019C64.5705 9.81165 64.4214 10.6034 64.1265 11.2803C63.8315 11.9572 63.4092 12.4788 62.8628 12.8483C62.3163 13.2178 61.6643 13.4041 60.9066 13.4041C60.149 13.4041 59.5001 13.2178 58.9505 12.8483C58.4009 12.4788 57.9818 11.9541 57.6868 11.2803C57.3918 10.6065 57.2428 9.81165 57.2428 8.9019V0.779358H59.7889V8.36474C59.7889 9.05094 59.8944 9.53842 60.1087 9.83339C60.3229 10.1284 60.5868 10.2743 60.9066 10.2743C61.2265 10.2743 61.4904 10.1253 61.7046 9.82407V9.82407Z" fill="#1D1D1B"/>
<path d="M69.7713 0.776245C70.6686 0.776245 71.3952 1.03085 71.9541 1.54006C72.513 2.04927 72.9228 2.76341 73.1837 3.68248C73.4445 4.60154 73.5749 5.67585 73.5749 6.90851C73.5749 8.14118 73.4414 9.25586 73.1743 10.2029C72.9073 11.1499 72.4944 11.8858 71.9355 12.4074C71.3766 12.929 70.6562 13.1929 69.7744 13.1929H66.1789V0.776245H69.7744H69.7713ZM68.7218 10.2556H69.3056C69.6099 10.2556 69.8676 10.1904 70.0787 10.0569C70.2898 9.92342 70.4606 9.7216 70.591 9.45147C70.7214 9.18134 70.8146 8.8429 70.8767 8.43615C70.9388 8.0294 70.9667 7.55745 70.9667 7.01719C70.9667 6.29684 70.9108 5.68827 70.8022 5.19769C70.6935 4.70711 70.5165 4.33762 70.2743 4.08922C70.0321 3.84083 69.7092 3.71663 69.3056 3.71663H68.7218V10.2556V10.2556Z" fill="#1D1D1B"/>
<path d="M80.4958 1.30718C80.9801 1.66115 81.3465 2.16105 81.5949 2.80377C81.8433 3.4465 81.9644 4.19479 81.9644 5.05175C81.9644 5.73794 81.8775 6.32168 81.7005 6.80605C81.5235 7.29042 81.3217 7.67854 81.095 7.97041C80.8684 8.26227 80.6728 8.46098 80.5144 8.56966L82.1383 13.1898H79.3438L78.0149 9.05092H77.3784V13.1898H74.8851V0.773132H78.6825C79.4059 0.773132 80.0114 0.950116 80.4958 1.30408V1.30718ZM78.2944 6.50487C78.5738 6.50487 78.816 6.38378 79.024 6.14469C79.2321 5.90561 79.3376 5.53302 79.3376 5.03002C79.3376 4.52702 79.2321 4.1389 79.0147 3.8874C78.7974 3.63589 78.5614 3.50859 78.2944 3.50859H77.3784V6.50176H78.2944V6.50487Z" fill="#1D1D1B"/>
<path d="M84.9886 13.1929V9.45457L82.2097 0.776245H84.97L86.2617 5.66033H86.3517L87.6558 0.776245H90.3105L87.5316 9.33659V13.1929H84.9855H84.9886Z" fill="#1D1D1B"/>
<path d="M42.6496 25.9884C42.6527 26.1343 42.6806 26.2772 42.7334 26.42C42.7862 26.5628 42.8638 26.6932 42.9632 26.8112C43.0625 26.9292 43.1898 27.0224 43.3389 27.0938C43.4879 27.1652 43.6618 27.1993 43.8605 27.1993C44.1182 27.1993 44.3231 27.1528 44.4753 27.0627C44.6274 26.9727 44.7361 26.8516 44.8013 26.7025C44.8665 26.5535 44.9007 26.3952 44.9007 26.2244C44.9007 25.9015 44.8013 25.6717 44.5995 25.5289C44.3977 25.3861 44.112 25.2681 43.7425 25.1687L42.7427 24.9048C42.2894 24.7837 41.8858 24.5819 41.5287 24.2962C41.1716 24.0106 40.8953 23.6162 40.6904 23.1132C40.4854 22.6102 40.3861 21.9768 40.3861 21.213C40.3861 20.3591 40.5289 19.6295 40.8177 19.024C41.1064 18.4186 41.507 17.9621 42.0224 17.6454C42.5378 17.3287 43.1402 17.1735 43.8263 17.1735C44.6057 17.1735 45.2453 17.366 45.7452 17.751C46.2451 18.136 46.6146 18.6297 46.8537 19.2289C47.0928 19.8282 47.2138 20.4554 47.2138 21.1043H44.91C44.9069 20.9273 44.8665 20.7504 44.7889 20.5734C44.7113 20.3964 44.5964 20.2443 44.438 20.1201C44.2797 19.9959 44.0778 19.9338 43.8326 19.9338C43.5096 19.9338 43.2737 20.03 43.1277 20.2194C42.9818 20.4088 42.9104 20.6386 42.9104 20.9056C42.9104 21.1726 43.0066 21.3807 43.1992 21.5297C43.3917 21.6787 43.6556 21.7905 43.9909 21.8713L45.0528 22.1165C45.4378 22.2004 45.8073 22.3711 46.1613 22.6258C46.5152 22.8804 46.8102 23.2623 47.04 23.7715C47.2697 24.2807 47.3846 24.9638 47.3846 25.8176C47.3846 26.6249 47.2542 27.3422 46.9934 27.9725C46.7326 28.6028 46.3383 29.0996 45.8073 29.4597C45.2764 29.8199 44.6088 30 43.8015 30C43.1215 30 42.5564 29.882 42.1 29.6492C41.6436 29.4163 41.2834 29.1027 41.0102 28.7115C40.7369 28.3202 40.5444 27.8886 40.4264 27.4167C40.3084 26.9447 40.2495 26.4666 40.2495 25.9884H42.6403H42.6496Z" fill="#1D1D1B"/>
<path d="M55.7556 27.2583C55.4575 28.1277 55.0166 28.8046 54.436 29.2828C53.8553 29.7609 53.1443 30 52.2997 30C51.4552 30 50.7473 29.7609 50.1635 29.2828C49.5798 28.8046 49.1389 28.1277 48.8377 27.2583C48.5365 26.389 48.3844 25.3736 48.3844 24.2155V22.9952C48.3844 21.8185 48.5365 20.7938 48.8377 19.9213C49.1389 19.0489 49.5798 18.372 50.1635 17.8938C50.7473 17.4157 51.4583 17.1766 52.2997 17.1766C53.1412 17.1766 53.8584 17.4188 54.436 17.9031C55.0135 18.3875 55.4544 19.0675 55.7556 19.9369C56.0567 20.8063 56.2058 21.8278 56.2058 22.9984V24.2186C56.2058 25.3767 56.0567 26.3921 55.7556 27.2615V27.2583ZM53.4393 21.4397C53.3337 21.0329 53.1847 20.7255 52.9922 20.5175C52.7996 20.3095 52.5699 20.2039 52.2966 20.2039C52.0234 20.2039 51.7936 20.3095 51.598 20.5175C51.4024 20.7255 51.2534 21.036 51.1478 21.4397C51.0422 21.8433 50.9895 22.3463 50.9895 22.9394V24.231C50.9895 24.8241 51.0422 25.3271 51.1478 25.7369C51.2534 26.1468 51.4024 26.4542 51.598 26.6591C51.7936 26.864 52.0234 26.9696 52.2966 26.9696C52.5699 26.9696 52.7996 26.8671 52.9922 26.6591C53.1847 26.4511 53.3337 26.1437 53.4393 25.7369C53.5448 25.3302 53.5976 24.8272 53.5976 24.231V22.9394C53.5976 22.3463 53.5448 21.8433 53.4393 21.4397Z" fill="#1D1D1B"/>
<path d="M61.9313 26.42C62.1424 26.1188 62.2511 25.6344 62.2511 24.9607V17.3753H64.7972V25.4978C64.7972 26.4076 64.6481 27.1993 64.3532 27.8762C64.0582 28.5531 63.6359 29.0747 63.0894 29.4442C62.543 29.8137 61.8909 30 61.1333 30C60.3757 30 59.7268 29.8137 59.1772 29.4442C58.6276 29.0747 58.2085 28.55 57.9135 27.8762C57.6185 27.2024 57.4695 26.4076 57.4695 25.4978V17.3753H60.0155V24.9607C60.0155 25.6469 60.1211 26.1343 60.3354 26.4293C60.5496 26.7243 60.8135 26.8702 61.1333 26.8702C61.4531 26.8702 61.7171 26.7212 61.9313 26.42V26.42Z" fill="#1D1D1B"/>
<path d="M65.6759 17.3722H68.6473L69.8055 25.8766H69.9204L71.0412 17.3722H73.8233L71.4449 29.7889H68.104L65.6728 17.3722H65.6759Z" fill="#1D1D1B"/>
<path d="M74.7982 29.7889V17.3722H77.3443V29.7889H74.7982Z" fill="#1D1D1B"/>
<path d="M83.7374 21.657C83.7249 21.4738 83.6908 21.3 83.638 21.1292C83.5852 20.9584 83.5076 20.8063 83.4113 20.6696C83.3151 20.533 83.194 20.4244 83.0543 20.3467C82.9145 20.2691 82.75 20.2287 82.5699 20.2287C82.1445 20.2287 81.8247 20.4585 81.6074 20.9149C81.39 21.3714 81.2845 22.0327 81.2845 22.8928V24.2031C81.2845 24.6626 81.3186 25.1035 81.39 25.5227C81.4614 25.9419 81.5918 26.2834 81.7875 26.5473C81.9831 26.8112 82.2656 26.9416 82.6351 26.9416C82.9021 26.9416 83.1226 26.8671 83.2965 26.715C83.4703 26.5628 83.6007 26.3734 83.6846 26.1406C83.7684 25.9077 83.8119 25.6779 83.8119 25.4389V25.2929H82.781V22.7655H86.1965V25.0942C86.1965 25.6997 86.1313 26.2958 86.0009 26.8827C85.8705 27.4695 85.6593 27.9942 85.3737 28.46C85.088 28.9257 84.7123 29.3014 84.2497 29.5777C83.787 29.8541 83.225 29.9969 82.5668 29.9969C81.8713 29.9969 81.2782 29.8417 80.7877 29.5281C80.2971 29.2145 79.8996 28.7891 79.5923 28.2488C79.2849 27.7086 79.0644 27.0907 78.9216 26.3983C78.7788 25.7059 78.7104 24.9762 78.7104 24.2186V22.8462C78.7104 21.7595 78.8564 20.7907 79.1514 19.9338C79.4463 19.0768 79.8779 18.403 80.4554 17.9094C81.0329 17.4157 81.744 17.1673 82.5916 17.1673C83.2095 17.1673 83.7467 17.2977 84.2031 17.5554C84.6595 17.8131 85.0321 18.1577 85.3271 18.5924C85.6221 19.0271 85.8425 19.5084 85.9853 20.0393C86.1282 20.5703 86.1996 21.1075 86.1996 21.6539H83.7436L83.7374 21.657Z" fill="#1D1D1B"/>
<path d="M87.5502 29.7889V17.3722H89.4598L92.2791 23.3772H92.3753V17.3722H94.7102V29.7889H92.8193L89.9814 23.6752H89.8851V29.7889H87.5502Z" fill="#1D1D1B"/>
<path d="M102.311 29.7889H96.4117V17.3722H102.311V20.3095H98.9267V22.2656H102.088V24.9203H98.9267V26.8485H102.311V29.7858V29.7889Z" fill="#1D1D1B"/>
<path d="M105.276 29.7889V20.4275H103.171V17.3722H109.928V20.4275H107.822V29.7889H105.276V29.7889Z" fill="#1D1D1B"/>
</svg>
